<svg width="118" height="37" viewBox="0 0 118 37" fill="none" xmlns="http://www.w3.org/2000/svg">
<path d="M56.94 11.72C57.74 11.9733 58.3667 12.4 58.82 13C59.2733 13.5867 59.5 14.3133 59.5 15.18C59.5 16.4067 59.02 17.3533 58.06 18.02C57.1133 18.6733 55.7267 19 53.9 19H46.66V5H53.5C55.2067 5 56.5133 5.32667 57.42 5.98C58.34 6.63333 58.8 7.52 58.8 8.64C58.8 9.32 58.6333 9.92667 58.3 10.46C57.98 10.9933 57.5267 11.4133 56.94 11.72ZM49.88 7.44V10.74H53.1C53.9 10.74 54.5067 10.6 54.92 10.32C55.3333 10.04 55.54 9.62667 55.54 9.08C55.54 8.53333 55.3333 8.12667 54.92 7.86C54.5067 7.58 53.9 7.44 53.1 7.44H49.88ZM53.66 16.56C54.5133 16.56 55.1533 16.42 55.58 16.14C56.02 15.86 56.24 15.4267 56.24 14.84C56.24 13.68 55.38 13.1 53.66 13.1H49.88V16.56H53.66ZM71.173 16H64.673L63.433 19H60.113L66.353 5H69.553L75.813 19H72.413L71.173 16ZM70.153 13.54L67.933 8.18L65.713 13.54H70.153ZM90.1055 5V19H87.4455L80.4655 10.5V19H77.2655V5H79.9455L86.9055 13.5V5H90.1055ZM98.5178 13.5L96.6378 15.46V19H93.4178V5H96.6378V11.54L102.838 5H106.438L100.638 11.24L106.778 19H102.998L98.5178 13.5Z" fill="white"/>
<path d="M47.964 26.616H45.052V24.9H52.982V26.616H50.07V34H47.964V26.616ZM59.9131 34L58.1581 31.465H58.0541H56.2211V34H54.1151V24.9H58.0541C58.8601 24.9 59.5578 25.0343 60.1471 25.303C60.7451 25.5717 61.2045 25.953 61.5251 26.447C61.8458 26.941 62.0061 27.526 62.0061 28.202C62.0061 28.878 61.8415 29.463 61.5121 29.957C61.1915 30.4423 60.7321 30.815 60.1341 31.075L62.1751 34H59.9131ZM59.8741 28.202C59.8741 27.6907 59.7095 27.3007 59.3801 27.032C59.0508 26.7547 58.5698 26.616 57.9371 26.616H56.2211V29.788H57.9371C58.5698 29.788 59.0508 29.6493 59.3801 29.372C59.7095 29.0947 59.8741 28.7047 59.8741 28.202ZM69.6677 32.05H65.4427L64.6367 34H62.4787L66.5347 24.9H68.6147L72.6837 34H70.4737L69.6677 32.05ZM69.0047 30.451L67.5617 26.967L66.1187 30.451H69.0047ZM81.9738 24.9V34H80.2448L75.7078 28.475V34H73.6278V24.9H75.3698L79.8938 30.425V24.9H81.9738ZM87.1169 34.156C86.3975 34.156 85.6999 34.0607 85.0239 33.87C84.3565 33.6707 83.8192 33.415 83.4119 33.103L84.1269 31.517C84.5169 31.803 84.9805 32.0327 85.5179 32.206C86.0552 32.3793 86.5925 32.466 87.1299 32.466C87.7279 32.466 88.1699 32.3793 88.4559 32.206C88.7419 32.024 88.8849 31.7857 88.8849 31.491C88.8849 31.2743 88.7982 31.0967 88.6249 30.958C88.4602 30.8107 88.2435 30.6937 87.9749 30.607C87.7149 30.5203 87.3595 30.425 86.9089 30.321C86.2155 30.1563 85.6479 29.9917 85.2059 29.827C84.7639 29.6623 84.3825 29.398 84.0619 29.034C83.7499 28.67 83.5939 28.1847 83.5939 27.578C83.5939 27.0493 83.7369 26.5727 84.0229 26.148C84.3089 25.7147 84.7379 25.3723 85.3099 25.121C85.8905 24.8697 86.5969 24.744 87.4289 24.744C88.0095 24.744 88.5772 24.8133 89.1319 24.952C89.6865 25.0907 90.1719 25.29 90.5879 25.55L89.9379 27.149C89.0972 26.6723 88.2565 26.434 87.4159 26.434C86.8265 26.434 86.3889 26.5293 86.1029 26.72C85.8255 26.9107 85.6869 27.162 85.6869 27.474C85.6869 27.786 85.8472 28.02 86.1679 28.176C86.4972 28.3233 86.9955 28.4707 87.6629 28.618C88.3562 28.7827 88.9239 28.9473 89.3659 29.112C89.8079 29.2767 90.1849 29.5367 90.4969 29.892C90.8175 30.2473 90.9779 30.7283 90.9779 31.335C90.9779 31.855 90.8305 32.3317 90.5359 32.765C90.2499 33.1897 89.8165 33.5277 89.2359 33.779C88.6552 34.0303 87.9489 34.156 87.1169 34.156ZM94.5229 26.59V28.995H98.7349V30.685H94.5229V34H92.4169V24.9H99.2939V26.59H94.5229ZM107.766 32.31V34H100.72V24.9H107.597V26.59H102.813V28.566H107.038V30.204H102.813V32.31H107.766ZM115.239 34L113.484 31.465H113.38H111.547V34H109.441V24.9H113.38C114.186 24.9 114.884 25.0343 115.473 25.303C116.071 25.5717 116.531 25.953 116.851 26.447C117.172 26.941 117.332 27.526 117.332 28.202C117.332 28.878 117.168 29.463 116.838 29.957C116.518 30.4423 116.058 30.815 115.46 31.075L117.501 34H115.239ZM115.2 28.202C115.2 27.6907 115.036 27.3007 114.706 27.032C114.377 26.7547 113.896 26.616 113.263 26.616H111.547V29.788H113.263C113.896 29.788 114.377 29.6493 114.706 29.372C115.036 29.0947 115.2 28.7047 115.2 28.202Z" fill="white"/>
<path d="M13.8125 33.62H31.875" stroke="#F78F1F" stroke-width="1.5" stroke-linecap="round" stroke-linejoin="round"/>
<path d="M15.9375 23.42V33.62" stroke="#F78F1F" stroke-width="1.5" stroke-linecap="round" stroke-linejoin="round"/>
<path d="M20.1875 23.42V33.62" stroke="#F78F1F" stroke-width="1.5" stroke-linecap="round" stroke-linejoin="round"/>
<path d="M25.5 23.42V33.62" stroke="#F78F1F" stroke-width="1.5" stroke-linecap="round" stroke-linejoin="round"/>
<path d="M29.75 23.42V33.62" stroke="#F78F1F" stroke-width="1.5" stroke-linecap="round" stroke-linejoin="round"/>
<path fill-rule="evenodd" clip-rule="evenodd" d="M32.9375 23.42H12.75L22.0646 17.5434C22.5288 17.2182 23.1587 17.2182 23.6229 17.5434L32.9375 23.42Z" stroke="#F78F1F" stroke-width="1.5" stroke-linecap="round" stroke-linejoin="round"/>
<path d="M8.12738 31.0319C1.9207 27.0412 -0.567062 19.4482 2.14252 12.7652C4.8521 6.08227 12.0323 2.10177 19.4161 3.18925C26.7998 4.27673 32.4068 10.1405 32.9049 17.2959" stroke="#F78F1F" stroke-width="1.5" stroke-linecap="round" stroke-linejoin="round"/>
<path d="M9.69568 20.3505C9.48839 17.6598 9.59864 14.9553 10.0243 12.2884C10.4051 9.16777 11.4739 6.16076 13.1594 3.46747" stroke="#F78F1F" stroke-width="1.5" stroke-linecap="round" stroke-linejoin="round"/>
<path d="M1.0979 17.3H9.56248" stroke="#F78F1F" stroke-width="1.5" stroke-linecap="round" stroke-linejoin="round"/>
<path d="M3.51611 10.16H30.4838" stroke="#F78F1F" stroke-width="1.5" stroke-linecap="round" stroke-linejoin="round"/>
<path d="M2.38843 24.44H8.49993" stroke="#F78F1F" stroke-width="1.5" stroke-linecap="round" stroke-linejoin="round"/>
<path d="M20.8406 3.46747C22.6818 6.45507 23.8011 9.80131 24.1159 13.2595" stroke="#F78F1F" stroke-width="1.5" stroke-linecap="round" stroke-linejoin="round"/>
</svg>
