<svg width="102" height="21" viewBox="0 0 102 21" fill="none" xmlns="http://www.w3.org/2000/svg">
<g clip-path="url(#clip0_2_198)">
<path d="M20.9772 13.0401C19.5548 18.665 13.7767 22.0884 8.07114 20.6856C2.36791 19.2833 -1.10402 13.5858 0.318959 7.96109C1.7406 2.33544 7.51872 -1.08818 13.2226 0.314208C18.9278 1.7166 22.3994 7.41477 20.9772 13.0401Z" fill="#F7931A"/>
<path d="M15.3433 9.00428C15.5553 7.60714 14.4764 6.85607 13.0011 6.35502L13.4797 4.46242L12.3113 4.17531L11.8454 6.01805C11.5383 5.94258 11.2228 5.87138 10.9093 5.80083L11.3785 3.94595L10.2108 3.65884L9.73193 5.5508C9.47768 5.4937 9.2281 5.43727 8.98582 5.37788L8.98716 5.37197L7.37583 4.97527L7.06501 6.20574C7.06501 6.20574 7.9319 6.40162 7.9136 6.41376C8.38682 6.53025 8.47234 6.83901 8.45803 7.08378L7.91294 9.23988C7.94555 9.24808 7.98781 9.25989 8.0344 9.27827C7.99546 9.26875 7.95387 9.25825 7.91094 9.24808L7.14687 12.2684C7.08897 12.4101 6.94221 12.6229 6.61142 12.5421C6.62308 12.5589 5.76216 12.3331 5.76216 12.3331L5.18213 13.6517L6.7026 14.0255C6.98548 14.0955 7.26268 14.1686 7.53556 14.2375L7.05203 16.1517L8.21909 16.4388L8.69797 14.545C9.01678 14.6302 9.32626 14.709 9.62909 14.7832L9.15188 16.6682L10.3203 16.9553L10.8038 15.0447C12.7962 15.4165 14.2943 15.2665 14.925 13.4897C15.4331 12.0591 14.8997 11.2339 13.8515 10.6957C14.6149 10.5222 15.1899 10.027 15.3433 9.00428ZM12.6738 12.6954C12.3127 14.126 9.8697 13.3526 9.07767 13.1586L9.71928 10.6226C10.5113 10.8175 13.0512 11.2034 12.6738 12.6954ZM13.0351 8.98362C12.7057 10.2849 10.6724 9.62378 10.0128 9.46169L10.5945 7.16155C11.2541 7.32364 13.3782 7.62618 13.0351 8.98362Z" fill="white"/>
<path d="M31.2074 6.35283C32.0709 6.35283 32.8171 6.5054 33.4441 6.80498C34.074 7.1075 34.5938 7.51503 35.0107 8.02756C35.4221 8.54271 35.7282 9.14481 35.9259 9.83485C36.1223 10.5269 36.2208 11.2707 36.2208 12.0671C36.2208 13.2903 35.9934 14.4459 35.5346 15.5353C35.0757 16.6263 34.453 17.5726 33.661 18.3798C32.8696 19.186 31.9352 19.8215 30.8576 20.2911C29.7818 20.761 28.612 20.9959 27.3561 20.9959C27.1937 20.9959 26.9082 20.9914 26.5048 20.9831C26.1015 20.9749 25.6379 20.9339 25.1189 20.8646C24.5963 20.7928 24.0439 20.6865 23.4606 20.5441C22.8775 20.4043 22.3238 20.2084 21.8022 19.9596L26.4653 0.641217L30.6417 0.00302124L28.9721 6.85846C29.3295 6.69965 29.6896 6.5766 30.0489 6.48703C30.4087 6.39877 30.7948 6.35283 31.2074 6.35283ZM27.7042 17.7291C28.3331 17.7291 28.9258 17.5765 29.4826 17.277C30.041 16.977 30.5229 16.5722 30.9265 16.0678C31.3302 15.5613 31.6497 14.9907 31.8826 14.3531C32.1156 13.7156 32.2334 13.0504 32.2334 12.3584C32.2334 11.5083 32.0893 10.8451 31.8021 10.3658C31.5149 9.88834 30.9835 9.64815 30.2118 9.64815C29.9588 9.64815 29.633 9.69573 29.229 9.78071C28.8237 9.87094 28.461 10.0583 28.1358 10.3402L26.358 17.6205C26.4653 17.6393 26.56 17.6569 26.6409 17.6737C26.7201 17.6918 26.8077 17.7045 26.8949 17.7134C26.9871 17.7235 27.0926 17.7288 27.2201 17.7288C27.3474 17.7288 27.5069 17.7291 27.7042 17.7291ZM40.552 20.6261H36.5629L39.9316 6.64912H43.9479L40.552 20.6261ZM42.4931 4.94617C41.9363 4.94617 41.4315 4.78277 40.9836 4.4553C40.5319 4.1298 40.3083 3.62877 40.3083 2.95349C40.3083 2.58205 40.3849 2.23359 40.5367 1.90482C40.6907 1.5767 40.892 1.29417 41.1443 1.05399C41.3962 0.815778 41.688 0.625468 42.0195 0.482079C42.353 0.340986 42.7076 0.27044 43.0858 0.27044C43.6422 0.27044 44.1443 0.433844 44.5939 0.76131C45.0418 1.09042 45.2671 1.59146 45.2671 2.26313C45.2671 2.63586 45.191 2.98565 45.0378 3.31377C44.8857 3.64189 44.6845 3.9244 44.4322 4.16459C44.1823 4.40312 43.8877 4.59278 43.557 4.73486C43.2231 4.87824 42.8697 4.94617 42.4931 4.94617ZM47.4438 3.16677L51.6219 2.52857L50.596 6.64847H55.0705L54.2626 9.88965H49.8149L48.6302 14.7787C48.521 15.1862 48.4592 15.5668 48.4419 15.9205C48.4223 16.2759 48.4678 16.581 48.5756 16.8379C48.6829 17.0955 48.8755 17.294 49.155 17.4345C49.4332 17.5773 49.8316 17.649 50.354 17.649C50.7843 17.649 51.2036 17.6088 51.609 17.5286C52.0119 17.4499 52.4203 17.3403 52.8336 17.1969L53.131 20.2275C52.5921 20.4224 52.0083 20.59 51.3794 20.7311C50.7493 20.8741 50.0036 20.9431 49.1417 20.9431C47.9024 20.9431 46.9416 20.7616 46.2571 20.4004C45.5736 20.0365 45.0905 19.5394 44.8013 18.91C44.516 18.283 44.3885 17.5601 44.4242 16.7458C44.4612 15.9294 44.5859 15.0713 44.8013 14.1677L47.4438 3.16677ZM54.8949 15.0448C54.8949 13.8409 55.0926 12.7056 55.4875 11.6428C55.8819 10.579 56.4499 9.6488 57.187 8.85049C57.9216 8.05611 58.8163 7.42677 59.8696 6.96478C60.9179 6.5054 62.0916 6.27376 63.3852 6.27376C64.1948 6.27376 64.9179 6.34922 65.5542 6.50048C66.1931 6.65305 66.7712 6.85025 67.294 7.09766L65.9182 10.182C65.5589 10.0383 65.1858 9.91163 64.8001 9.79679C64.4141 9.67965 63.9429 9.62322 63.3854 9.62322C62.0541 9.62322 61.0015 10.0757 60.2181 10.9777C59.4376 11.8804 59.0447 13.0954 59.0447 14.6195C59.0447 15.5228 59.2423 16.2533 59.639 16.812C60.0337 17.3708 60.7628 17.6488 61.8215 17.6488C62.3439 17.6488 62.848 17.5949 63.3309 17.4899C63.8174 17.3836 64.2471 17.2498 64.6255 17.0915L64.9232 20.2534C64.4187 20.4463 63.8623 20.6205 63.2521 20.7731C62.6403 20.9205 61.9123 20.9969 61.068 20.9969C59.9535 20.9969 59.0101 20.8361 58.2383 20.5195C57.4663 20.1979 56.8283 19.771 56.3258 19.2303C55.8206 18.6883 55.4579 18.0553 55.2336 17.3288C55.0093 16.603 54.8949 15.8404 54.8949 15.0448ZM72.6155 20.9969C71.6635 20.9969 70.8365 20.8539 70.1349 20.5706C69.4355 20.2875 68.8561 19.8901 68.3978 19.375C67.939 18.8625 67.5955 18.2551 67.3602 17.5553C67.125 16.8557 67.0118 16.0809 67.0118 15.2322C67.0118 14.1673 67.1852 13.1029 67.5356 12.0415C67.8844 10.9777 68.4018 10.0219 69.0867 9.17237C69.7663 8.32155 70.6045 7.62593 71.5916 7.08355C72.5776 6.54478 73.7117 6.27376 74.9855 6.27376C75.9203 6.27376 76.7431 6.41714 77.4542 6.7003C78.162 6.98283 78.745 7.38346 79.206 7.89598C79.6619 8.41114 80.0083 9.01586 80.2413 9.71673C80.4759 10.415 80.5917 11.1916 80.5917 12.0411C80.5917 13.1026 80.4207 14.1671 80.0812 15.2318C79.7414 16.2913 79.2372 17.2494 78.5717 18.1009C77.9075 18.9504 77.0768 19.6456 76.0792 20.1858C75.0828 20.7259 73.9274 20.9969 72.6155 20.9969ZM74.6093 9.62354C74.0179 9.62354 73.4951 9.79285 73.0474 10.1272C72.5982 10.4655 72.2208 10.8907 71.9167 11.4036C71.6092 11.9188 71.3812 12.4806 71.2271 13.0912C71.0743 13.7031 70.9996 14.2816 70.9996 14.8312C70.9996 15.718 71.1446 16.4088 71.4298 16.9059C71.7191 17.4004 72.2385 17.649 72.9936 17.649C73.5869 17.649 74.1071 17.481 74.5573 17.143C75.004 16.8074 75.3816 16.3819 75.6881 15.868C75.9936 15.3555 76.2236 14.7922 76.3776 14.1804C76.5284 13.5706 76.6052 12.9888 76.6052 12.4402C76.6052 11.5555 76.4608 10.8632 76.173 10.3667C75.8854 9.87225 75.3637 9.62354 74.6093 9.62354ZM84.9385 20.6261H80.9461L84.3148 6.64912H88.3331L84.9385 20.6261ZM86.8766 4.94617C86.3202 4.94617 85.8157 4.78277 85.3684 4.4553C84.9191 4.1298 84.6936 3.62877 84.6936 2.95349C84.6936 2.58205 84.7711 2.23359 84.9232 1.90482C85.0752 1.5767 85.2778 1.29417 85.5301 1.05399C85.7808 0.815778 86.0753 0.625468 86.4061 0.482079C86.7374 0.340986 87.0922 0.27044 87.469 0.27044C88.0267 0.27044 88.5305 0.433844 88.9791 0.76131C89.428 1.09042 89.6546 1.59146 89.6546 2.26313C89.6546 2.63586 89.5742 2.98565 89.4234 3.31377C89.2726 3.64189 89.07 3.9244 88.8187 4.16459C88.5658 4.40312 88.2749 4.59278 87.9435 4.73486C87.6094 4.87824 87.2553 4.94617 86.8766 4.94617ZM91.2082 7.2847C91.5109 7.19741 91.849 7.09241 92.2167 6.97823C92.5858 6.86404 92.9981 6.75773 93.4587 6.66192C93.9143 6.56315 94.4284 6.48309 94.9938 6.42108C95.5592 6.35774 96.2035 6.32691 96.9193 6.32691C99.0231 6.32691 100.473 6.93098 101.274 8.13552C102.074 9.34004 102.213 10.9885 101.693 13.0781L99.8584 20.6248H95.8431L97.6215 13.2368C97.7299 12.7754 97.8151 12.3296 97.8781 11.8938C97.9416 11.462 97.9379 11.0814 97.8638 10.752C97.7929 10.4265 97.6258 10.16 97.3666 9.95363C97.1034 9.75053 96.7057 9.64848 96.1662 9.64848C95.646 9.64848 95.117 9.7036 94.5769 9.80992L91.9622 20.6245H87.9451L91.2082 7.2847Z" fill="white"/>
</g>
<defs>
<clipPath id="clip0_2_198">
<rect width="102" height="21" fill="white"/>
</clipPath>
</defs>
</svg>
