<svg width="96" height="38" viewBox="0 0 96 38" fill="none" xmlns="http://www.w3.org/2000/svg">
<g clip-path="url(#clip0_2_174)">
<path d="M70.8922 37.7804H67.303L69.548 23.0665H73.137L70.8922 37.7804Z" fill="white"/>
<path d="M83.9033 23.4265C83.1959 23.1287 82.0727 22.8 80.6844 22.8C77.1397 22.8 74.6437 24.8035 74.6282 27.6679C74.5994 29.7813 76.4153 30.9551 77.7741 31.6597C79.1631 32.3798 79.635 32.8498 79.635 33.4916C79.621 34.4773 78.5125 34.9317 77.4794 34.9317C76.0461 34.9317 75.2788 34.6974 74.1121 34.149L73.6391 33.9139L73.1368 37.2169C73.9784 37.6234 75.5299 37.9842 77.1397 38C80.9059 38 83.3576 36.0275 83.3871 32.975C83.4012 31.3 82.4419 30.0166 80.3742 28.9678C79.1188 28.2946 78.3501 27.8406 78.3501 27.1517C78.3649 26.5255 78.9999 25.8841 80.417 25.8841C81.5838 25.8527 82.4412 26.15 83.091 26.4475L83.4152 26.6037L83.9033 23.4265Z" fill="white"/>
<path d="M88.6737 32.5678C88.9698 31.7225 90.1071 28.4509 90.1071 28.4509C90.0923 28.4824 90.4017 27.5901 90.5789 27.0423L90.83 28.3101C90.83 28.3101 91.5094 31.8322 91.6571 32.5678C91.0966 32.5678 89.3826 32.5678 88.6737 32.5678ZM93.1045 23.0665H90.3279C89.472 23.0665 88.8214 23.3323 88.4522 24.2873L83.1205 37.7802H86.8866C86.8866 37.7802 87.5069 35.9642 87.6399 35.573C88.0534 35.573 91.7169 35.573 92.2486 35.573C92.3513 36.0897 92.6769 37.7802 92.6769 37.7802H96L93.1045 23.0665Z" fill="white"/>
<path d="M64.3052 23.0665L60.7902 33.1L60.406 31.0651C59.7562 28.7171 57.7181 26.166 55.4437 24.8975L58.6633 37.7649H62.4589L68.1005 23.0665H64.3052Z" fill="white"/>
<path d="M57.526 23.0665H51.7513L51.6923 23.3638C56.1969 24.5848 59.1803 27.528 60.406 31.0657L59.1506 24.3033C58.944 23.3636 58.3088 23.0975 57.526 23.0665Z" fill="#FAA61A"/>
<path d="M67.5037 1.6254H60.2533V13.5739H67.5037V1.6254Z" fill="#FF5F00"/>
<path d="M61 7.6003C60.9991 6.44979 61.2576 5.31412 61.7559 4.27927C62.2543 3.24442 62.9794 2.33749 63.8763 1.62713C62.7653 0.746178 61.4312 0.198368 60.0262 0.0463073C58.6212 -0.105754 57.2023 0.144069 55.9314 0.767219C54.6605 1.39037 53.5891 2.36172 52.8394 3.57024C52.0898 4.77876 51.6923 6.17569 51.6923 7.60136C51.6923 9.02704 52.0898 10.424 52.8394 11.6326C53.5891 12.841 54.6605 13.8124 55.9314 14.4355C57.2023 15.0587 58.6212 15.3085 60.0262 15.1564C61.4312 15.0044 62.7653 14.4566 63.8763 13.5756C62.9791 12.865 62.2538 11.9578 61.7554 10.9226C61.2571 9.88729 60.9988 8.75124 61 7.6003Z" fill="#EB001B"/>
<path d="M76.0616 7.60038C76.0616 9.02614 75.6643 10.4232 74.914 11.6317C74.1645 12.8403 73.0928 13.8116 71.8217 14.4347C70.5507 15.0577 69.1316 15.3074 67.7266 15.1552C66.3215 15.0029 64.9873 14.4547 63.8765 13.5735C64.7731 12.8625 65.498 11.9554 65.9964 10.9204C66.4949 9.88555 66.7539 8.74996 66.7539 7.5993C66.7539 6.44865 66.4949 5.31304 65.9964 4.27812C65.498 3.24321 64.7731 2.33603 63.8765 1.62505C64.9873 0.743821 66.3215 0.195745 67.7266 0.0434653C69.1316 -0.108814 70.5507 0.140848 71.8217 0.763914C73.0928 1.38698 74.1645 2.3583 74.914 3.56686C75.6643 4.77542 76.0616 6.17245 76.0616 7.59825V7.60038Z" fill="#F79E1B"/>
<path d="M11.4572 0C11.414 0 11.3793 0 11.3447 0C10.1847 0.0264838 9.07665 0.653266 8.45339 1.74793L6.71342 4.82887L41.3659 25.2302L43.1059 22.1493C44.0581 20.472 43.4955 18.3532 41.8507 17.3822L13.128 0.46788C12.5999 0.158902 12.0286 0.00882793 11.4572 0ZM5.48418 6.99171L0.46334 15.855C-0.488889 17.5323 0.0737922 19.6598 1.71856 20.622L30.4326 37.5275C32.0774 38.4986 34.155 37.9248 35.1072 36.2474L40.128 27.3842L5.48418 6.99171ZM26.4159 25.804L32.6141 29.4499L31.3848 31.6128L25.1953 27.9669L26.4159 25.804Z" fill="#F78F1E"/>
<path d="M16.3222 28.4526C16.3222 32.3634 13.2145 35.5415 9.37096 35.5415C5.53606 35.5415 2.41968 32.3723 2.41968 28.4526C2.41968 24.5331 5.52741 21.3639 9.37096 21.3639C13.2145 21.3639 16.3222 24.5331 16.3222 28.4526Z" fill="white"/>
<path d="M9.3794 18.8909C4.20275 18.8909 0.0129395 23.1636 0.0129395 28.4427C0.0129395 33.7218 4.20275 37.9945 9.3794 37.9945C14.5561 37.9945 18.7459 33.713 18.7459 28.4427C18.7459 23.1636 14.5474 18.8909 9.3794 18.8909ZM9.35348 22.8723C9.68239 22.8635 10.0114 22.9959 10.2451 23.2343L15.0928 28.1778L13.3615 29.9435L10.6086 27.1362V34.0219H8.15879V27.1362L5.40602 29.9435L3.6747 28.1778L8.52241 23.2343C8.73014 23.0047 9.04177 22.8723 9.35348 22.8723Z" fill="black"/>
</g>
<defs>
<clipPath id="clip0_2_174">
<rect width="96" height="38" fill="white"/>
</clipPath>
</defs>
</svg>
