<svg width="24" height="24" viewBox="0 0 23 22" fill="none" xmlns="http://www.w3.org/2000/svg">
<path d="M11.5 21.75C5.57 21.75 0.75 16.93 0.75 11C0.75 5.07 5.57 0.25 11.5 0.25C17.43 0.25 22.25 5.07 22.25 11C22.25 16.93 17.43 21.75 11.5 21.75ZM11.5 1.75C6.4 1.75 2.25 5.9 2.25 11C2.25 16.1 6.4 20.25 11.5 20.25C16.6 20.25 20.75 16.1 20.75 11C20.75 5.9 16.6 1.75 11.5 1.75Z" fill="#dd0031"/>
<path d="M11.5 12.75C11.09 12.75 10.75 12.41 10.75 12V7C10.75 6.59 11.09 6.25 11.5 6.25C11.91 6.25 12.25 6.59 12.25 7V12C12.25 12.41 11.91 12.75 11.5 12.75Z" fill="#dd0031"/>
<path d="M11.5 16C11.37 16 11.24 15.97 11.12 15.92C11 15.87 10.89 15.8 10.79 15.71C10.7 15.61 10.63 15.51 10.58 15.38C10.53 15.26 10.5 15.13 10.5 15C10.5 14.87 10.53 14.74 10.58 14.62C10.63 14.5 10.7 14.39 10.79 14.29C10.89 14.2 11 14.13 11.12 14.08C11.36 13.98 11.64 13.98 11.88 14.08C12 14.13 12.11 14.2 12.21 14.29C12.3 14.39 12.37 14.5 12.42 14.62C12.47 14.74 12.5 14.87 12.5 15C12.5 15.13 12.47 15.26 12.42 15.38C12.37 15.51 12.3 15.61 12.21 15.71C12.11 15.8 12 15.87 11.88 15.92C11.76 15.97 11.63 16 11.5 16Z" fill="#dd0031"/>
</svg>
