<svg width="141" height="36" viewBox="0 0 141 36" fill="none" xmlns="http://www.w3.org/2000/svg">
<path d="M40.0141 20.714C40.0121 20.8391 39.9615 20.9583 39.8736 21.0456C39.7856 21.1328 39.6674 21.181 39.5448 21.1795H30.8997C31.1214 23.3614 32.7252 25.357 34.994 25.357C36.5458 25.357 37.6932 24.7582 38.5537 23.4944C38.5938 23.428 38.6492 23.3727 38.7152 23.3333C38.7811 23.2938 38.8556 23.2716 38.9319 23.2683C38.9889 23.2666 39.0455 23.2768 39.0985 23.2983C39.1514 23.3198 39.1995 23.3521 39.2397 23.3932C39.2801 23.4343 39.3117 23.4833 39.3327 23.5373C39.3538 23.5913 39.3638 23.6492 39.3622 23.7073C39.3624 23.7875 39.3398 23.8662 39.297 23.9334C38.4234 25.4767 36.6891 26.235 34.994 26.235C32.0863 26.235 30 23.5743 30 20.7405C30 17.9068 32.0733 15.2461 34.994 15.2461C37.9148 15.2461 40.0011 17.8802 40.0141 20.714ZM39.0883 20.3016C38.9058 18.1197 37.2629 16.1242 34.994 16.1242C32.7252 16.1242 31.1214 18.1197 30.8997 20.3016H39.0883Z" fill="white"/>
<path d="M50.5238 15.4589C50.6369 15.4623 50.7445 15.5096 50.8245 15.5913C50.9045 15.6729 50.9508 15.7826 50.9541 15.898C50.9558 15.9562 50.9458 16.014 50.9247 16.068C50.9036 16.122 50.8721 16.171 50.8317 16.2122C50.7915 16.2533 50.7434 16.2856 50.6905 16.3069C50.6375 16.3284 50.5808 16.3387 50.5238 16.337H48.2029V25.6363C48.2018 25.7525 48.1562 25.8636 48.0757 25.9456C47.9952 26.0278 47.8864 26.0744 47.7726 26.0754C47.6595 26.0721 47.5519 26.0247 47.472 25.9431C47.3919 25.8615 47.3455 25.7518 47.3423 25.6363V16.337H45.1126C45.0556 16.3387 44.999 16.3284 44.946 16.3069C44.8931 16.2856 44.845 16.2533 44.8047 16.2122C44.7645 16.171 44.7328 16.122 44.7117 16.068C44.6908 16.014 44.6807 15.9562 44.6823 15.898C44.6834 15.7819 44.729 15.6708 44.8095 15.5887C44.8899 15.5066 44.9988 15.46 45.1126 15.4589H47.3423V12.0666C47.3425 11.9541 47.3821 11.8455 47.4538 11.7601C47.5254 11.6748 47.6247 11.6183 47.7335 11.6009C47.7943 11.5926 47.8562 11.5979 47.9149 11.6162C47.9735 11.6347 48.0276 11.6658 48.0734 11.7075C48.1192 11.7491 48.1557 11.8005 48.1802 11.8578C48.2049 11.9152 48.2171 11.9773 48.2159 12.0399V15.4589H50.5238Z" fill="white"/>
<path d="M64.6713 19.9556V25.5832C64.668 25.6985 64.6216 25.8083 64.5416 25.8899C64.4616 25.9715 64.354 26.0188 64.241 26.0222C64.184 26.0239 64.1274 26.0136 64.0744 25.9921C64.0215 25.9706 63.9734 25.9384 63.9331 25.8972C63.8928 25.8562 63.8612 25.8071 63.8401 25.7531C63.819 25.6991 63.8091 25.6412 63.8107 25.5832V19.9556C63.8107 18.0533 62.7545 16.1641 60.6812 16.1641C58.0212 16.1641 56.8738 18.5322 57.0303 20.9667C57.0303 21.0333 57.0563 21.3126 57.0563 21.3526V25.5698C57.0561 25.6823 57.0166 25.7909 56.9449 25.8763C56.8732 25.9616 56.774 26.018 56.6652 26.0355C56.6043 26.0438 56.5425 26.0385 56.4838 26.0201C56.4252 26.0017 56.371 25.9706 56.3252 25.9289C56.2795 25.8872 56.2429 25.8359 56.2184 25.7785C56.1938 25.7212 56.1816 25.6591 56.1827 25.5964V7.09092C56.1837 6.97481 56.2294 6.86375 56.3098 6.78164C56.3903 6.69953 56.4992 6.65294 56.613 6.6519C56.7261 6.65525 56.8336 6.70258 56.9137 6.78419C56.9936 6.86582 57.04 6.97554 57.0433 7.09092V17.5477C57.7866 16.1907 59.1166 15.2728 60.6682 15.2728C63.2239 15.2728 64.6713 17.5477 64.6713 19.9556Z" fill="white"/>
<path d="M80.2015 20.714C80.1995 20.8391 80.149 20.9583 80.061 21.0456C79.973 21.1328 79.8549 21.181 79.7322 21.1795H71.0872C71.3088 23.3614 72.9127 25.357 75.1814 25.357C76.7331 25.357 77.8806 24.7582 78.7412 23.4944C78.7812 23.428 78.8367 23.3727 78.9026 23.3333C78.9685 23.2938 79.043 23.2716 79.1193 23.2683C79.1763 23.2666 79.2329 23.2768 79.2859 23.2983C79.3388 23.3198 79.3869 23.3521 79.4272 23.3932C79.4675 23.4343 79.4991 23.4833 79.5202 23.5373C79.5413 23.5913 79.5512 23.6492 79.5496 23.7073C79.5499 23.7875 79.5273 23.8662 79.4844 23.9334C78.6108 25.4767 76.8766 26.235 75.1814 26.235C72.2737 26.235 70.1875 23.5743 70.1875 20.7405C70.1875 17.9068 72.2607 15.2461 75.1814 15.2461C78.0762 15.2461 80.1885 17.8802 80.2015 20.714ZM79.2628 20.3016C79.0802 18.1197 77.4373 16.1242 75.1684 16.1242C72.8996 16.1242 71.2958 18.1197 71.0742 20.3016H79.2628Z" fill="white"/>
<path d="M90.8283 15.8713C90.8367 15.9895 90.7988 16.1062 90.7231 16.1959C90.6473 16.2857 90.5399 16.3411 90.4242 16.3503C87.8815 16.7361 86.7341 18.8514 86.7341 21.3126V25.5299C86.7338 25.6424 86.6943 25.751 86.6227 25.8363C86.5509 25.9217 86.4518 25.9781 86.3428 25.9955C86.282 26.0037 86.2202 25.9986 86.1614 25.9801C86.1028 25.9617 86.0488 25.9307 86.0029 25.889C85.9571 25.8473 85.9207 25.796 85.8961 25.7386C85.8715 25.6812 85.8594 25.6191 85.8604 25.5565V15.9379C85.8606 15.8255 85.9001 15.7169 85.9718 15.6315C86.0436 15.5462 86.1427 15.4896 86.2515 15.4723C86.3124 15.464 86.3743 15.4693 86.433 15.4876C86.4917 15.506 86.5457 15.5372 86.5915 15.5789C86.6374 15.6205 86.6738 15.6719 86.6984 15.7291C86.7229 15.7865 86.7351 15.8487 86.7341 15.9113V17.8669C87.4512 16.6297 88.8725 15.4589 90.3589 15.4589C90.5807 15.4589 90.8283 15.6186 90.8283 15.8713Z" fill="white"/>
<path d="M105.041 20.714C105.039 20.8391 104.988 20.9583 104.9 21.0456C104.812 21.1328 104.694 21.181 104.572 21.1795H95.9265C96.1483 23.3614 97.7521 25.357 100.021 25.357C101.573 25.357 102.72 24.7582 103.581 23.4944C103.621 23.428 103.676 23.3727 103.742 23.3333C103.808 23.2938 103.882 23.2716 103.959 23.2683C104.016 23.2666 104.072 23.2768 104.125 23.2983C104.178 23.3198 104.226 23.3521 104.267 23.3932C104.307 23.4343 104.338 23.4833 104.36 23.5373C104.381 23.5913 104.391 23.6492 104.389 23.7073C104.389 23.7875 104.367 23.8662 104.324 23.9334C103.45 25.4767 101.716 26.235 100.021 26.235C97.1132 26.235 95.0269 23.5743 95.0269 20.7405C95.0269 17.9068 97.1 15.2461 100.021 15.2461C102.942 15.2461 105.028 17.8802 105.041 20.714ZM104.115 20.3016C103.933 18.1197 102.29 16.1242 100.021 16.1242C97.7521 16.1242 96.1483 18.1197 95.9265 20.3016H104.115Z" fill="white"/>
<path d="M119.018 15.9778V25.6363C119.015 25.7517 118.968 25.8614 118.889 25.9431C118.809 26.0247 118.702 26.072 118.588 26.0753C118.531 26.077 118.475 26.0667 118.422 26.0454C118.369 26.0239 118.32 25.9916 118.28 25.9505C118.24 25.9094 118.208 25.8603 118.187 25.8063C118.167 25.7523 118.156 25.6945 118.158 25.6363V23.8004C117.441 25.2505 116.176 26.3015 114.56 26.3015C111.991 26.3015 110.569 24.0266 110.569 21.6186V15.9645C110.57 15.8484 110.615 15.7373 110.696 15.6552C110.776 15.5731 110.885 15.5265 111 15.5255C111.113 15.5288 111.22 15.5761 111.3 15.6578C111.38 15.7394 111.426 15.8491 111.43 15.9645V21.6186C111.43 23.521 112.486 25.4102 114.56 25.4102C117.467 25.4102 118.158 22.6297 118.158 19.5566V15.9512C118.16 15.88 118.176 15.8101 118.209 15.7473C118.242 15.6846 118.29 15.6308 118.347 15.5903C118.404 15.55 118.471 15.5242 118.54 15.5152C118.608 15.5062 118.679 15.5143 118.745 15.5388C118.827 15.5776 118.896 15.6397 118.944 15.7175C118.993 15.7952 119.019 15.8856 119.018 15.9778Z" fill="white"/>
<path d="M140.912 19.9157V25.5699C140.909 25.6853 140.862 25.795 140.783 25.8766C140.702 25.9582 140.594 26.0056 140.482 26.0088C140.425 26.0105 140.367 26.0003 140.315 25.9789C140.262 25.9574 140.214 25.9251 140.174 25.884C140.133 25.8429 140.102 25.7938 140.081 25.7398C140.059 25.6858 140.05 25.628 140.051 25.5699V19.9157C140.051 18.0133 138.995 16.1508 136.922 16.1508C134.314 16.1508 133.323 18.9978 133.323 21.2062V25.5699C133.32 25.6853 133.273 25.795 133.193 25.8766C133.113 25.9582 133.005 26.0056 132.892 26.0088C132.836 26.0105 132.779 26.0003 132.726 25.9789C132.673 25.9574 132.625 25.9251 132.585 25.884C132.545 25.8429 132.513 25.7938 132.492 25.7398C132.471 25.6858 132.46 25.628 132.462 25.5699V19.9157C132.462 18.0133 131.407 16.1508 129.332 16.1508C126.699 16.1508 125.617 18.2661 125.708 21.0865C125.708 21.153 125.735 21.2727 125.708 21.3126V25.5565C125.708 25.669 125.668 25.7776 125.597 25.8629C125.525 25.9483 125.425 26.0048 125.317 26.0222C125.256 26.0304 125.195 26.0252 125.135 26.0068C125.077 25.9884 125.023 25.9573 124.976 25.9156C124.931 25.8739 124.895 25.8226 124.871 25.7653C124.845 25.7079 124.833 25.6458 124.835 25.5832V15.9379C124.835 15.8255 124.874 15.7169 124.946 15.6315C125.018 15.5462 125.117 15.4897 125.225 15.4723C125.287 15.464 125.348 15.4693 125.407 15.4877C125.466 15.5061 125.52 15.5372 125.565 15.5789C125.612 15.6206 125.648 15.6719 125.672 15.7293C125.697 15.7866 125.709 15.8487 125.708 15.9114V17.5211C126.451 16.1641 127.781 15.2728 129.332 15.2728C131.093 15.2728 132.462 16.4169 133.023 18.0798C133.74 16.4302 135.136 15.2728 136.922 15.2728C139.464 15.2728 140.912 17.5211 140.912 19.9157Z" fill="white"/>
<path opacity="0.6" d="M10.9109 13.317L0.0883789 18.3326L10.9109 24.8648L21.7465 18.3326L10.9109 13.317Z" fill="black"/>
<path opacity="0.45" d="M0.0883789 18.3326L10.9109 24.8648V0L0.0883789 18.3326Z" fill="#7D7B7B"/>
<path opacity="0.8" d="M10.9106 0V24.8648L21.7462 18.3326L10.9106 0Z" fill="#7D7B7B"/>
<path opacity="0.45" d="M0.0883789 20.4346L10.9109 36V26.9534L0.0883789 20.4346Z" fill="#7D7B7B"/>
<path opacity="0.8" d="M10.9106 26.9534V36L21.7462 20.4346L10.9106 26.9534Z" fill="#7D7B7B"/>
</svg>
