<svg width="186" height="24" viewBox="0 0 186 24" fill="none" xmlns="http://www.w3.org/2000/svg">
<g clip-path="url(#clip0_515:674)">
<path d="M66.2807 10.2857C66.2807 10.8159 66.5555 11.081 67.1051 11.081H69.56C70.4576 11.081 71.0988 11.2754 71.5202 11.6819C71.9415 12.0707 72.1431 12.7069 72.1431 13.5375V14.1914C72.1431 15.0398 71.9415 15.6583 71.5202 16.0471C71.0988 16.4359 70.4576 16.648 69.56 16.648C69.2852 16.648 68.9921 16.648 68.699 16.648C68.3875 16.648 68.0944 16.648 67.7646 16.648C67.4532 16.648 67.1418 16.648 66.8303 16.648C66.5189 16.648 66.2258 16.648 65.9327 16.648C65.2732 16.648 64.6137 16.595 63.9541 16.4713V14.7923C64.6137 14.7923 65.2548 14.7923 65.896 14.7923C66.4273 14.7923 66.9769 14.7923 67.5631 14.7923C68.131 14.7923 68.6257 14.7923 69.0287 14.7923C69.2302 14.7923 69.3951 14.7393 69.5233 14.6333C69.6516 14.5272 69.7065 14.3682 69.7065 14.1738V13.0604H66.5739C65.6212 13.0604 64.9251 12.8483 64.5037 12.4418C64.0641 12.0177 63.8625 11.3638 63.8625 10.4448V10.056C63.8625 9.13695 64.0824 8.46538 64.5037 8.05889C64.9434 7.63474 65.6212 7.44034 66.5739 7.44034H71.3553V9.27834H67.1235C66.5739 9.27834 66.2991 9.54343 66.2991 10.0736V10.2857H66.2807Z" fill="white"/>
<path d="M81.5961 16.595H74.03V7.405H81.5961V9.24299H76.4849V11.0103H80.4969V12.8483H76.4849V14.757H81.5961V16.595Z" fill="white"/>
<path d="M85.8279 14.757H90.7925V16.595H83.373V7.405H85.8279V14.757Z" fill="white"/>
<path d="M94.8777 14.757H99.8423V16.595H92.4229V7.405H94.8777V14.757Z" fill="white"/>
<path d="M98.7615 7.405H101.345L103.598 11.8763L105.851 7.405H108.434L104.825 14.1738V16.6127H102.37V14.1738L98.7615 7.405Z" fill="#F78F1F"/>
<path d="M117.961 14.1031C117.961 15.0221 117.741 15.6937 117.32 16.1001C116.88 16.5243 116.202 16.7187 115.249 16.7187H111.842C110.889 16.7187 110.193 16.5066 109.772 16.1001C109.332 15.676 109.131 15.0221 109.131 14.1031V9.89689C109.131 8.97789 109.35 8.30632 109.772 7.89984C110.211 7.47568 110.889 7.28128 111.842 7.28128H115.231C116.184 7.28128 116.88 7.49336 117.301 7.89984C117.741 8.32399 117.942 8.97789 117.942 9.89689V14.1031H117.961ZM115.506 9.89689C115.506 9.3667 115.231 9.1016 114.681 9.1016H112.373C111.824 9.1016 111.549 9.3667 111.549 9.89689V14.1031C111.549 14.6333 111.824 14.8984 112.373 14.8984H114.681C115.231 14.8984 115.506 14.6333 115.506 14.1031V9.89689Z" fill="#F78F1F"/>
<path d="M126.131 7.405H128.586V14.1031C128.586 15.0221 128.366 15.6937 127.945 16.1001C127.505 16.5243 126.827 16.7187 125.875 16.7187H122.742C121.789 16.7187 121.093 16.5066 120.672 16.1001C120.232 15.676 120.031 15.0221 120.031 14.1031V7.405H122.486V14.1031C122.486 14.6333 122.76 14.8984 123.31 14.8984H125.307C125.856 14.8984 126.131 14.6333 126.131 14.1031V7.405Z" fill="#F78F1F"/>
<path d="M130.894 7.405H136.61C137.563 7.405 138.259 7.61708 138.68 8.02356C139.12 8.44771 139.321 9.10161 139.321 10.0206V11.2047C139.321 11.9293 139.193 12.4948 138.955 12.9013C138.698 13.3078 138.314 13.5729 137.764 13.6966L139.468 16.595H136.812L135.236 13.838H133.331V16.595H130.876V7.405H130.894ZM136.885 10.0206C136.885 9.49042 136.61 9.22532 136.06 9.22532H133.331V11.9823H136.06C136.61 11.9823 136.885 11.7172 136.885 11.187V10.0206Z" fill="#F78F1F"/>
<path d="M143.425 10.2857C143.425 10.8159 143.7 11.081 144.249 11.081H146.704C147.602 11.081 148.243 11.2754 148.664 11.6819C149.086 12.0707 149.287 12.7069 149.287 13.5375V14.1914C149.287 15.0398 149.086 15.6583 148.664 16.0471C148.243 16.4359 147.602 16.648 146.704 16.648C146.429 16.648 146.136 16.648 145.843 16.648C145.532 16.648 145.239 16.648 144.909 16.648C144.597 16.648 144.286 16.648 143.975 16.648C143.663 16.648 143.37 16.648 143.077 16.648C142.417 16.648 141.758 16.595 141.098 16.4713V14.7923C141.758 14.7923 142.399 14.7923 143.04 14.7923C143.572 14.7923 144.121 14.7923 144.707 14.7923C145.275 14.7923 145.77 14.7923 146.173 14.7923C146.375 14.7923 146.539 14.7393 146.668 14.6333C146.796 14.5272 146.851 14.3682 146.851 14.1738V13.0604H143.718C142.766 13.0604 142.069 12.8483 141.648 12.4418C141.208 12.0177 141.007 11.3638 141.007 10.4448V10.056C141.007 9.13695 141.227 8.46538 141.648 8.05889C142.088 7.63474 142.766 7.44034 143.718 7.44034H148.5V9.27834H144.268C143.718 9.27834 143.443 9.54343 143.443 10.0736V10.2857H143.425Z" fill="white"/>
<path d="M153.647 16.595H151.193V7.405H153.647V11.0103H154.875L157 7.405H159.583L156.908 11.9293L159.565 16.595H156.982L154.875 12.8483H153.647V16.595Z" fill="white"/>
<path d="M165.574 16.595H160.664V14.757H161.891V9.24299H160.664V7.405H165.574V9.24299H164.346V14.757H165.574V16.595Z" fill="white"/>
<path d="M175.778 16.595H173.195L169.934 11.081V16.595H167.479V7.405H170.062L173.323 12.919V7.405H175.778V16.595Z" fill="white"/>
<path d="M180.138 10.2857C180.138 10.8159 180.412 11.081 180.962 11.081H183.417C184.315 11.081 184.956 11.2754 185.377 11.6819C185.798 12.0707 186 12.7069 186 13.5375V14.1914C186 15.0398 185.798 15.6583 185.377 16.0471C184.956 16.4359 184.315 16.648 183.417 16.648C183.142 16.648 182.849 16.648 182.556 16.648C182.244 16.648 181.951 16.648 181.622 16.648C181.31 16.648 180.999 16.648 180.687 16.648C180.376 16.648 180.083 16.648 179.79 16.648C179.13 16.648 178.471 16.595 177.811 16.4713V14.7923C178.471 14.7923 179.112 14.7923 179.753 14.7923C180.284 14.7923 180.834 14.7923 181.42 14.7923C182.006 14.7923 182.483 14.7923 182.886 14.7923C183.087 14.7923 183.252 14.7393 183.38 14.6333C183.509 14.5272 183.563 14.3682 183.563 14.1738V13.0604H180.431C179.478 13.0604 178.782 12.8483 178.361 12.4418C177.921 12.0177 177.719 11.3638 177.719 10.4448V10.056C177.719 9.13695 177.939 8.46538 178.361 8.05889C178.8 7.63474 179.478 7.44034 180.431 7.44034H185.212V9.27834H180.98C180.431 9.27834 180.156 9.54343 180.156 10.0736V10.2857H180.138Z" fill="white"/>
<path d="M56.9554 12.1767C56.8638 18.7158 51.2763 24.0177 44.498 24C40.4127 24 36.7854 22.0913 34.532 19.1576L33.5977 20.0589L31.7841 13.944L32.2787 14.1031L36.0892 15.3932L37.8296 15.9764L36.8953 16.8778C38.5624 19.299 41.4386 20.8895 44.6995 20.8188C49.4626 20.7305 53.383 17.0722 53.6395 12.4772C53.9143 7.38733 49.7191 3.18115 44.5163 3.18115C42.5561 3.18115 40.7607 3.76436 39.2768 4.77172C38.6723 5.1782 38.1593 5.54934 37.683 6.07953L32.1322 10.9573L21.5983 20.0943L19.8213 21.6318C17.7512 23.0987 15.2048 23.9647 12.4385 23.9647C5.51363 23.9647 -0.0922007 18.5037 -0.000602216 11.7879C0.0909963 5.28424 5.67851 0 12.4568 0C16.5421 0 20.1694 1.90869 22.4227 4.84241L23.357 3.94109L25.1707 10.0736L24.676 9.91458L20.8655 8.62445L19.1252 8.04124L20.0595 7.13991C18.3924 4.70103 15.4979 3.12813 12.237 3.18115C7.47384 3.26951 3.55342 6.94551 3.31526 11.5228C3.04047 16.595 7.23568 20.8012 12.4385 20.8012C14.362 20.8012 16.1574 20.218 17.623 19.2459C18.0626 18.9632 18.4657 18.6274 18.8321 18.2739L22.2945 15.1811L24.8226 12.972L35.906 3.34021H35.9243L36.4923 2.84536C38.6357 1.07806 41.4386 0 44.5163 0C51.4411 0 57.047 5.46097 56.9554 12.1767Z" fill="#F78F1F"/>
<path d="M45.5978 10.6745V9.61415H48.419V7.40502C48.419 7.40502 47.5213 7.29898 46.0924 7.24596L45.7809 6.02652H43.9307L43.6375 7.19294C43.5826 7.19294 43.5459 7.19294 43.491 7.19294C41.6773 7.19294 40.5232 8.16496 40.5232 9.49044V11.0103C40.5232 12.7953 42.4284 12.9367 44.1139 12.9897V14.5273H40.5965V16.5597C40.5965 16.5597 41.9521 16.8071 43.6375 16.9308L43.9307 18.0795H45.7809L46.0557 17.0015C47.7228 16.9131 49.1884 16.2415 49.1884 14.7217V12.7776C49.1884 11.0987 47.2832 10.7982 45.5978 10.6745ZM43.0696 10.056C43.0696 9.91459 43.0696 9.59648 43.4177 9.59648H44.1139V10.5508C43.491 10.4801 43.0696 10.3564 43.0696 10.056ZM45.8359 14.5096H45.5978V13.0781C46.2206 13.1664 46.642 13.3432 46.642 13.8027C46.642 14.0678 46.3489 14.5096 45.8359 14.5096Z" fill="#F78F1F"/>
<path d="M19.0158 9.243V8.90722C19.0158 8.90722 18.6494 9.08395 18.5212 9.13697H17.8983L17.8067 9.3137L17.6785 9.06627H14.8206L14.7107 9.26068H12.2009L11.9444 9.01325H9.801L9.45293 9.18999C9.03157 9.18999 8.92166 8.80118 8.44534 8.80118C8.44534 9.03093 8.48198 9.08395 8.18887 9.40206C7.89575 9.72018 7.51104 9.68483 7.23624 9.59647C7.12633 10.0913 7.52936 10.0736 7.52936 10.5685C7.52936 11.0633 6.52177 10.975 6.43018 11.5228C6.43018 11.5228 8.11559 11.2401 8.11559 12.1591C8.11559 12.972 6.81489 14.4035 7.27288 15.9588C7.27288 15.9588 8.53694 16.2769 10.5888 15.8351C10.5888 15.8351 10.4239 15.676 10.4239 15.5346C10.5888 13.9264 10.7353 13.2548 11.1017 12.9013C11.7246 13.1134 12.8421 12.9897 12.9703 12.866C12.9703 11.8233 13.3733 11.4875 13.7947 11.2224H18.9609C18.9609 11.2224 19.4555 10.2327 19.4555 9.22533H19.0158V9.243ZM12.7138 12.3004C12.7138 12.5125 12.5306 12.6716 12.3291 12.6716H11.6879C11.4681 12.6716 11.3032 12.4948 11.3032 12.3004V11.6819C11.3032 11.4698 11.4864 11.3108 11.6879 11.3108H12.3291C12.549 11.3108 12.7138 11.4875 12.7138 11.6819V12.3004Z" fill="#F78F1F"/>
</g>
<defs>
<clipPath id="clip0_515:674">
<rect width="186" height="24" fill="white"/>
</clipPath>
</defs>
</svg>
