<svg width="100" height="27" viewBox="0 0 100 27" fill="none" xmlns="http://www.w3.org/2000/svg">
<path d="M37.2669 5.52185H31.7516C31.569 5.52174 31.3924 5.58778 31.2535 5.70809C31.1147 5.82839 31.0228 5.99505 30.9944 6.17804L28.7637 20.5265C28.7534 20.5931 28.7575 20.6611 28.7757 20.7259C28.7938 20.7907 28.8256 20.8508 28.8689 20.902C28.912 20.9532 28.9657 20.9942 29.0261 21.0224C29.0864 21.0505 29.1521 21.065 29.2185 21.0649H31.8516C32.0343 21.065 32.211 20.9988 32.3499 20.8783C32.4887 20.7578 32.5805 20.5909 32.6089 20.4079L33.2104 16.5378C33.2387 16.3549 33.3304 16.1881 33.4691 16.0677C33.6078 15.9472 33.7844 15.881 33.9669 15.8809H35.7129C39.3459 15.8809 41.4427 14.0972 41.9903 10.5626C42.237 9.0163 42.0008 7.80131 41.287 6.9504C40.5032 6.01604 39.1129 5.52185 37.2669 5.52185ZM37.9032 10.7623C37.6016 12.7701 36.0894 12.7701 34.6274 12.7701H33.7951L34.379 9.02043C34.3961 8.91066 34.4512 8.81076 34.5344 8.73862C34.6177 8.66648 34.7235 8.62683 34.833 8.62683H35.2144C36.2104 8.62683 37.1499 8.62683 37.6354 9.20285C37.9249 9.54651 38.0137 10.0571 37.9032 10.7623ZM53.7532 10.6976H51.112C51.0026 10.6976 50.8967 10.7373 50.8134 10.8094C50.7303 10.8816 50.6751 10.9815 50.658 11.0913L50.5411 11.8407L50.3564 11.5691C49.7846 10.7271 48.5096 10.4457 47.237 10.4457C44.3185 10.4457 41.8258 12.6883 41.3403 15.8342C41.0879 17.4035 41.4468 18.904 42.3242 19.9505C43.129 20.9127 44.2806 21.3136 45.6508 21.3136C48.0024 21.3136 49.3064 19.7795 49.3064 19.7795L49.1887 20.524C49.1782 20.5906 49.182 20.6587 49.2 20.7236C49.2179 20.7885 49.2495 20.8487 49.2926 20.9C49.3357 20.9513 49.3892 20.9926 49.4495 21.0209C49.5099 21.0492 49.5754 21.064 49.6419 21.064H52.0209C52.2036 21.0641 52.3804 20.998 52.5192 20.8775C52.6581 20.757 52.7499 20.5902 52.7782 20.407L54.2056 11.236C54.2161 11.1696 54.2123 11.1017 54.1944 11.0369C54.1764 10.9721 54.1449 10.912 54.1019 10.8609C54.0589 10.8097 54.0054 10.7686 53.9452 10.7404C53.885 10.7122 53.8195 10.6976 53.7532 10.6976ZM50.0718 15.9128C49.8169 17.4436 48.6194 18.4712 47.0919 18.4712C46.3249 18.4712 45.712 18.2217 45.3185 17.7488C44.9282 17.2791 44.7798 16.6106 44.904 15.8661C45.1419 14.3484 46.3596 13.2872 47.8637 13.2872C48.6137 13.2872 49.2234 13.5401 49.6249 14.017C50.0274 14.499 50.187 15.1715 50.0718 15.9128ZM67.8194 10.6976H65.1653C65.0401 10.6979 64.9169 10.729 64.8063 10.7885C64.6957 10.848 64.6011 10.9339 64.5306 11.0389L60.8701 16.5092L59.3185 11.2524C59.2709 11.0921 59.1736 10.9515 59.0412 10.8516C58.9087 10.7517 58.7481 10.6977 58.583 10.6976H55.9749C55.9018 10.6975 55.8295 10.715 55.7644 10.7489C55.6992 10.7827 55.6429 10.8318 55.6003 10.8921C55.5576 10.9525 55.5297 11.0223 55.519 11.0958C55.5083 11.1693 55.515 11.2443 55.5387 11.3146L58.462 20.0184L55.7137 23.9546C55.6649 24.0245 55.6359 24.1065 55.6299 24.1919C55.624 24.2773 55.6414 24.3627 55.6801 24.4388C55.7189 24.5148 55.7774 24.5786 55.8495 24.6231C55.9215 24.6675 56.0043 24.6911 56.0887 24.6911H58.7395C58.8633 24.6912 58.9852 24.6609 59.0949 24.6028C59.2046 24.5447 59.2988 24.4604 59.3694 24.3572L68.1968 11.4299C68.2446 11.36 68.2727 11.2781 68.2779 11.1932C68.2831 11.1082 68.2654 11.0234 68.2264 10.9479C68.1876 10.8725 68.1291 10.8093 68.0573 10.7651C67.9855 10.7211 67.9033 10.6977 67.8194 10.6976Z" fill="white"/>
<path d="M76.6066 5.52188H71.0905C70.908 5.52195 70.7316 5.58808 70.5929 5.70838C70.4542 5.82866 70.3624 5.99521 70.334 6.17805L68.1034 20.5265C68.093 20.593 68.097 20.6609 68.115 20.7257C68.133 20.7904 68.1646 20.8505 68.2077 20.9016C68.2507 20.9529 68.3042 20.9939 68.3645 21.0221C68.4247 21.0503 68.4902 21.0649 68.5566 21.0649H71.3872C71.5149 21.0647 71.6384 21.0182 71.7354 20.934C71.8323 20.8497 71.8965 20.7331 71.9163 20.6051L72.5493 16.5379C72.5776 16.3548 72.6693 16.1881 72.808 16.0677C72.9467 15.9472 73.1232 15.881 73.3058 15.8809H75.051C78.6848 15.8809 80.7808 14.0972 81.3292 10.5627C81.5767 9.01633 81.3388 7.80133 80.6252 6.95042C79.8421 6.01605 78.4526 5.52188 76.6066 5.52188ZM77.2429 10.7623C76.9421 12.7702 75.43 12.7702 73.9671 12.7702H73.1357L73.7203 9.02046C73.7371 8.91069 73.792 8.8107 73.8752 8.73856C73.9582 8.66634 74.0641 8.62677 74.1736 8.62685H74.555C75.5502 8.62685 76.4905 8.62685 76.976 9.20288C77.2655 9.54654 77.3534 10.0571 77.2429 10.7623ZM93.0925 10.6977H90.4525C90.3433 10.6974 90.2375 10.7369 90.1542 10.8091C90.0708 10.8814 90.0158 10.9814 89.9992 11.0913L89.8825 11.8407L89.6967 11.5691C89.125 10.7271 87.8508 10.4457 86.5783 10.4457C83.66 10.4457 81.1679 12.6883 80.6824 15.8342C80.4308 17.4035 80.7881 18.9041 81.6655 19.9505C82.4719 20.9127 83.6217 21.3136 84.9925 21.3136C87.3433 21.3136 88.6475 19.7795 88.6475 19.7795L88.53 20.5241C88.5192 20.5907 88.5233 20.659 88.5417 20.724C88.5592 20.789 88.5908 20.8493 88.6342 20.9006C88.6775 20.952 88.7317 20.9933 88.7917 21.0215C88.8525 21.0496 88.9183 21.0642 88.985 21.0641H91.3633C91.5458 21.064 91.7225 20.9977 91.8608 20.8773C91.9992 20.7568 92.0917 20.59 92.1192 20.407L93.5475 11.2361C93.5575 11.1694 93.5533 11.1014 93.535 11.0365C93.5175 10.9717 93.485 10.9116 93.4417 10.8605C93.3983 10.8094 93.345 10.7684 93.285 10.7402C93.2242 10.7121 93.1583 10.6976 93.0925 10.6977ZM89.4108 15.9128C89.1575 17.4436 87.9583 18.4712 86.4308 18.4712C85.6658 18.4712 85.0508 18.2217 84.6575 17.7488C84.2675 17.2792 84.12 16.6107 84.2425 15.8661C84.4825 14.3484 85.6983 13.2872 87.2025 13.2872C87.9525 13.2872 88.5625 13.5401 88.9642 14.0171C89.3675 14.4989 89.5275 15.1715 89.4108 15.9128ZM96.2058 5.91542L93.9425 20.5265C93.9317 20.593 93.9358 20.6609 93.9533 20.7257C93.9717 20.7904 94.0033 20.8505 94.0467 20.9016C94.0892 20.9529 94.1433 20.9939 94.2033 21.0221C94.2633 21.0503 94.3292 21.0649 94.395 21.0649H96.6708C97.0492 21.0649 97.37 20.7867 97.4283 20.4079L99.6608 6.06024C99.6708 5.99373 99.6667 5.92574 99.6492 5.86093C99.6308 5.79612 99.5992 5.73604 99.5567 5.6848C99.5133 5.63357 99.46 5.5924 99.3992 5.56414C99.3392 5.53587 99.2742 5.52118 99.2075 5.52106H96.6592C96.55 5.52145 96.4442 5.56135 96.3608 5.63361C96.2775 5.70587 96.2225 5.80577 96.2058 5.91542Z" fill="white"/>
<path d="M5.85974 23.8532L6.28151 21.1353L5.342 21.1131H0.855713L3.97345 1.05704C3.98273 0.995761 4.01341 0.939905 4.0599 0.899658C4.10638 0.859411 4.16556 0.837446 4.22668 0.837772H11.7912C14.3025 0.837772 16.0356 1.36796 16.9404 2.41441C17.3646 2.90532 17.6347 3.41832 17.7654 3.98286C17.9025 4.57523 17.9049 5.28296 17.771 6.14614L17.7613 6.20913V6.76223L18.1856 7.00604C18.5094 7.17249 18.8005 7.39765 19.0444 7.67041C19.4073 8.09014 19.642 8.62362 19.7412 9.25601C19.8436 9.90646 19.8097 10.6805 19.642 11.5568C19.4484 12.5648 19.1356 13.4427 18.713 14.1611C18.3401 14.8046 17.8388 15.362 17.2412 15.7974C16.6799 16.2016 16.013 16.5084 15.2589 16.7048C14.5283 16.8979 13.6952 16.9952 12.7815 16.9952H12.1928C11.7718 16.9952 11.363 17.149 11.042 17.4248C10.7215 17.7035 10.5088 18.0885 10.442 18.5113L10.3977 18.756L9.6525 23.5464L9.61858 23.7223C9.60975 23.778 9.59441 23.8058 9.57183 23.8246C9.55 23.8428 9.52266 23.8528 9.49441 23.8532H5.85974Z" fill="#253B80"/>
<path d="M18.5872 6.27292C18.5646 6.41938 18.5387 6.5691 18.5097 6.72292C17.5122 11.9192 14.0992 13.7143 9.74029 13.7143H7.52096C6.98789 13.7143 6.5387 14.107 6.45563 14.6405L5.31935 21.9518L4.99757 24.0242C4.98476 24.1064 4.98965 24.1905 5.01192 24.2706C5.03418 24.3506 5.0733 24.4249 5.12657 24.4882C5.17983 24.5515 5.24599 24.6023 5.32048 24.6372C5.39497 24.6721 5.47602 24.6902 5.55806 24.6902H9.49437C9.96046 24.6902 10.3565 24.3466 10.4298 23.8802L10.4686 23.6773L11.2097 18.9057L11.2573 18.6438C11.3298 18.1758 11.7267 17.8322 12.1927 17.8322H12.7815C16.5952 17.8322 19.5807 16.2613 20.4532 11.7155C20.8177 9.81644 20.6291 8.23083 19.6646 7.11565C19.3588 6.77067 18.9937 6.4851 18.5872 6.27292Z" fill="#179BD7"/>
<path d="M17.5435 5.85081C17.225 5.75732 16.901 5.68436 16.5734 5.63236C15.926 5.53143 15.2718 5.483 14.6169 5.48753H8.68783C8.46217 5.48736 8.24392 5.56909 8.0725 5.71795C7.90108 5.8668 7.7878 6.07297 7.75315 6.29917L6.49186 14.4041L6.45557 14.6406C6.49486 14.3826 6.62387 14.1473 6.81928 13.9774C7.01468 13.8075 7.26356 13.7142 7.52089 13.7144H9.74025C14.0991 13.7144 17.512 11.9185 18.5096 6.723C18.5395 6.56917 18.5645 6.41945 18.587 6.27299C18.3238 6.13294 18.0495 6.01553 17.7669 5.92199C17.6928 5.89706 17.6184 5.87332 17.5435 5.85081Z" fill="#222D65"/>
<path d="M7.75316 6.29918C7.78752 6.07291 7.90073 5.86665 8.07224 5.71787C8.24375 5.56909 8.46217 5.48765 8.68783 5.48837H14.6168C15.3193 5.48837 15.9749 5.535 16.5733 5.63318C16.9783 5.69774 17.3776 5.79431 17.7677 5.922C18.062 6.021 18.3354 6.138 18.5878 6.273C18.8846 4.35273 18.5854 3.04527 17.562 1.86136C16.4338 0.558 14.3975 0 11.7918 0H4.22735C3.69509 0 3.24106 0.392728 3.1588 0.927003L0.0079917 21.1893C-0.00668423 21.2833 -0.00110053 21.3795 0.0243587 21.4712C0.0498179 21.5629 0.0945483 21.6478 0.155473 21.7203C0.216398 21.7928 0.292072 21.851 0.377288 21.891C0.462505 21.9309 0.555243 21.9517 0.649121 21.9518H5.31928L6.49187 14.4041L7.75316 6.29918Z" fill="#253B80"/>
</svg>
