<svg width="87" height="32" viewBox="0 0 87 32" fill="none" xmlns="http://www.w3.org/2000/svg">
<g clip-path="url(#clip0_2_186)">
<path fill-rule="evenodd" clip-rule="evenodd" d="M45.1189 18.114L43.4889 16.157C43.4507 16.1109 43.4264 16.0548 43.4189 15.9953C43.4114 15.9359 43.4211 15.8755 43.4467 15.8214C43.4723 15.7672 43.5128 15.7214 43.5635 15.6895C43.6142 15.6576 43.673 15.6407 43.7329 15.641H47.1419C47.3039 15.159 47.3959 14.644 47.3959 14.108C47.3959 11.658 45.5679 9.54501 43.0599 9.54501C40.5519 9.54501 38.7239 11.658 38.7239 14.108C38.7239 16.558 40.5519 18.642 43.0599 18.642C43.8199 18.642 44.5159 18.448 45.1199 18.113L45.1189 18.114ZM52.4929 21.419C52.6699 21.615 52.5249 21.929 52.2579 21.929H48.5379C48.4632 21.9291 48.3893 21.9128 48.3216 21.8811C48.2538 21.8495 48.1939 21.8034 48.1459 21.746L47.5159 20.989C46.1892 21.8495 44.6413 22.3066 43.0599 22.305C38.5309 22.305 34.8469 18.628 34.8469 14.108C34.8469 9.58801 38.5309 5.91101 43.0599 5.91101C47.5889 5.91101 51.2729 9.58801 51.2729 14.108C51.2729 15.738 50.7929 17.256 49.9679 18.534L52.4929 21.419ZM86.8619 6.29001H83.8249C83.7181 6.29027 83.6158 6.33282 83.5403 6.40834C83.4647 6.48386 83.4222 6.58621 83.4219 6.69301V21.526C83.4219 21.749 83.6019 21.929 83.8249 21.929H86.8619C87.0849 21.929 87.2659 21.749 87.2659 21.526V6.69201C87.2659 6.58486 87.2234 6.4821 87.1476 6.40634C87.0718 6.33057 86.9691 6.28801 86.8619 6.28801V6.29001ZM81.7519 6.29001H78.3559C78.2697 6.28968 78.1855 6.31698 78.1159 6.3679C78.0463 6.41882 77.9948 6.4907 77.9689 6.57301L75.2809 15.339L72.3259 6.56301C72.2989 6.48295 72.2473 6.41342 72.1786 6.36425C72.1099 6.31508 72.0274 6.28876 71.9429 6.28901H69.5729C69.4883 6.2887 69.4057 6.31498 69.3368 6.36414C69.2679 6.41331 69.2162 6.48287 69.1889 6.56301L66.2349 15.339L63.5469 6.57301C63.5213 6.49051 63.4698 6.41842 63.4002 6.3673C63.3305 6.31619 63.2463 6.28875 63.1599 6.28901H59.7629C59.6991 6.28912 59.6362 6.3043 59.5794 6.33332C59.5226 6.36235 59.4734 6.40438 59.4359 6.45601C59.3985 6.50715 59.3738 6.56654 59.3641 6.62919C59.3543 6.69183 59.3598 6.7559 59.3799 6.81601L64.3699 21.657C64.4249 21.821 64.5799 21.931 64.7529 21.931H67.4489C67.6229 21.931 67.7769 21.821 67.8319 21.658L70.7579 12.987L73.6829 21.657C73.7379 21.821 73.8929 21.931 74.0659 21.931H76.7629C76.9369 21.931 77.0909 21.821 77.1459 21.657L82.1359 6.81601C82.1561 6.75596 82.1616 6.69196 82.152 6.62935C82.1424 6.56674 82.1181 6.50731 82.0809 6.45601C82.0433 6.40431 81.9939 6.36223 81.9369 6.33321C81.8799 6.30419 81.8169 6.28904 81.7529 6.28901L81.7519 6.29001ZM58.0939 6.69301V21.526C58.0939 21.749 57.9139 21.929 57.6899 21.929H54.6539C54.5469 21.929 54.4443 21.8866 54.3686 21.811C54.2929 21.7355 54.2502 21.633 54.2499 21.526V6.69201C54.2499 6.46901 54.4299 6.28801 54.6539 6.28801H57.6899C57.9129 6.28801 58.0939 6.46901 58.0939 6.69301Z" fill="white"/>
<path d="M32.179 31.618C28.925 28.741 25.986 27.814 23.277 27.814C20.262 27.814 18.206 28.216 16.136 28.216C8.329 28.216 2 21.899 2 14.107C2 6.316 8.329 0 16.136 0C23.942 0 30.271 6.317 30.271 14.107C30.2753 16.6581 29.5835 19.162 28.27 21.349C28.229 21.418 28.123 21.395 28.113 21.315C27.627 17.848 25.506 15.937 22.417 15.38C22.149 15.332 22.099 15.167 22.453 15.136C23.395 15.055 24.738 15.069 25.42 15.192C25.462 14.837 25.48 14.474 25.48 14.107C25.48 8.957 21.296 4.782 16.136 4.782C10.975 4.782 6.791 8.957 6.791 14.107C6.791 19.258 10.975 23.434 16.135 23.434C16.283 23.434 16.429 23.435 16.575 23.429C16.419 22.523 16.37 21.602 16.399 20.907C16.422 20.338 16.538 20.26 16.795 20.702C18.088 22.926 19.943 24.952 23.551 25.746C26.5 26.394 29.457 27.161 32.654 31.19C32.939 31.548 32.505 31.906 32.179 31.618Z" fill="#FF8C00"/>
<path d="M24.817 24.298C25.149 23.853 24.958 23.222 24.329 22.692C24.018 22.429 23.656 22.284 23.311 22.284C23.027 22.284 22.79 22.383 22.644 22.563C22.271 23.022 22.439 23.83 23.011 24.329C23.2807 24.5539 23.6208 24.6771 23.972 24.677C24.332 24.677 24.632 24.542 24.817 24.298Z" fill="#FF8C00"/>
<path d="M26.931 22.218C27.128 22.218 27.323 21.962 27.231 21.344C27.175 20.975 26.97 20.173 26.445 19.976C26.174 19.873 25.959 19.955 25.857 20.142C25.701 20.425 25.816 20.985 26.13 21.473C26.447 21.968 26.716 22.218 26.931 22.218Z" fill="#FF8C00"/>
</g>
<defs>
<clipPath id="clip0_2_186">
<rect width="87" height="32" fill="white"/>
</clipPath>
</defs>
</svg>
