<svg width="68" height="60" viewBox="0 0 68 60" fill="none" xmlns="http://www.w3.org/2000/svg">
<path d="M48.842 23.525C50.3842 23.525 51.6329 22.2884 51.6329 20.7637C51.6329 19.239 50.3834 18 48.842 18C47.3007 18 46.0536 19.2382 46.0536 20.7637C46.0535 21.1264 46.1255 21.4855 46.2656 21.8206C46.4057 22.1558 46.6111 22.4603 46.87 22.7167C47.129 22.9732 47.4364 23.1767 47.7748 23.3155C48.1131 23.4543 48.4758 23.5258 48.842 23.5258M27.4663 25.0143C27.3403 25.3363 26.4339 27.8642 24.2414 30.491V19.2559L18.4003 20.399V40.7665H24.2422V34.4711C25.9347 36.9828 26.7704 40.7665 26.7704 40.7665H33.7675C33.0765 37.9167 30.0483 32.6638 30.0483 32.6638C31.8474 30.3658 33.2342 27.7785 34.148 25.0151L27.4663 25.0143ZM42.8229 24.8018C37.5916 24.9684 34.9349 27.2926 34.9349 31.9135V40.7657H40.6434V33.5477C40.6434 30.7816 41.0093 29.603 44.3245 29.4823V24.8855C43.7668 24.768 42.8229 24.805 42.8229 24.805M8.60426 27.2604C7.88886 27.2145 6.23207 27.1074 6.23207 25.631C6.23207 23.8494 8.61645 23.8494 9.51151 23.8494C11.0846 23.8494 13.121 24.3083 14.5762 24.7406C15.0718 24.9448 15.5727 25.1359 16.0785 25.3138L16.1436 25.3315V20.4497L16.0558 20.424C14.3388 19.8282 12.343 19.2567 8.64166 19.2567C2.26 19.2567 0 22.9373 0 26.0915C0 27.9092 0.786934 32.188 8.09454 32.6815C8.71401 32.7194 10.3578 32.8127 10.3578 34.3399C10.3578 35.5998 9.01155 36.3428 6.7483 36.3428C4.2688 36.3428 1.86003 35.7165 0.399158 35.1224V40.1483C2.58762 40.7158 5.05411 41 7.94577 41C14.1852 41 16.9793 37.5174 16.9793 34.0654C16.9793 30.1513 13.8527 27.609 8.60589 27.2604M46.0146 40.769H51.676V25.0336H46.013L46.0146 40.769ZM62.337 20.2606V40.769H68V19.2583L62.337 20.2606ZM54.075 20.2606L59.7315 19.2583V40.769H54.075V20.2589V20.2606Z" fill="white"/>
</svg>
