<svg width="98" height="76" viewBox="0 0 98 76" fill="none" xmlns="http://www.w3.org/2000/svg">
<path d="M15.1593 31.008C15.0062 31.008 14.5468 31.008 13.6281 31.008C12.8625 31.008 12.25 31.008 12.0968 31.008C8.8812 30.856 6.4312 30.4 6.4312 29.64C6.4312 29.032 8.72808 28.424 12.0968 28.272V30.4C12.25 30.4 12.8625 30.4 13.7812 30.4C14.7 30.4 15.3125 30.4 15.3125 30.4V28.272C18.5281 28.424 20.9781 29.032 20.9781 29.64C20.825 30.248 18.2218 30.856 15.1593 31.008ZM15.1593 27.968V25.992H19.6V23.104H7.34995V25.992H11.9437V27.968C8.42183 28.12 5.51245 28.88 5.51245 29.64C5.51245 30.4 8.2687 31.16 11.9437 31.312V37.544H15.1593V31.312C18.6812 31.16 21.5906 30.4 21.5906 29.64C21.4375 28.88 18.6812 28.12 15.1593 27.968Z" fill="white"/>
<path d="M37.975 23.864V26.904H41.0375V29.184H37.975V34.048C37.975 35.112 38.5875 35.568 39.3531 35.568C39.8125 35.568 40.2719 35.416 40.7313 35.264L41.4969 37.544C40.7313 37.848 40.1188 38 39.2 38C36.9031 38.152 35.2188 36.784 35.2188 34.048V29.336H33.2281V27.056H35.2188V24.32L37.975 23.864ZM90.8031 26.904L90.9563 28.12C91.875 26.752 92.9469 26.6 94.0188 26.6C95.0907 26.6 96.1625 27.056 96.775 27.664L95.55 29.944C94.9375 29.488 94.4781 29.184 93.5594 29.184C92.1813 29.184 90.8031 29.944 90.8031 31.92V37.848H88.0469V26.904H90.8031ZM84.0657 31.16C83.9125 29.792 82.8406 29.032 81.1563 29.032C79.625 29.032 78.5531 29.792 78.0938 31.16H84.0657ZM77.9407 33.44C78.0938 34.808 79.3188 35.72 81.1563 35.72C82.2281 35.72 83.4532 35.416 84.0657 34.656L85.75 36.328C84.525 37.544 82.6875 38.152 80.85 38.152C77.0219 38.152 74.725 35.872 74.725 32.224C74.725 28.88 77.0219 26.448 80.6969 26.448C84.3719 26.448 86.8219 28.728 86.3625 33.288L77.9407 33.44ZM65.8438 22.344V28.576C66.7625 27.36 67.9875 26.904 69.2125 26.904C72.275 26.904 73.8063 29.032 73.8063 32.376V38H71.05V32.224C71.05 30.248 69.9781 29.336 68.6 29.336C67.0688 29.336 65.8438 30.704 65.8438 32.376V38H63.0875V22.344H65.8438ZM58.4938 23.712V26.752H61.5563V29.032H58.4938V33.744C58.4938 34.808 59.1063 35.264 59.8719 35.264C60.3313 35.264 60.7906 35.112 61.25 34.96L62.0156 37.24C61.4031 37.848 60.7906 38 59.7188 38C57.4219 38.152 55.7375 36.784 55.7375 34.048V29.336H53.7469V27.056H55.7375V24.168L58.4938 23.712ZM50.9906 31.16C50.8375 29.792 49.7656 29.032 48.0813 29.032C46.55 29.032 45.4781 29.792 45.0188 31.16H50.9906ZM45.0188 33.44C45.1719 34.808 46.3969 35.72 48.2344 35.72C49.3063 35.72 50.5313 35.416 51.1438 34.656L52.8281 36.328C51.6031 37.544 49.7656 38.152 48.0813 38.152C44.2531 38.152 41.9563 35.872 41.9563 32.224C41.9563 28.88 44.2531 26.448 47.9281 26.448C51.6031 26.448 54.0531 28.728 53.5938 33.288L45.0188 33.44Z" fill="white"/>
<path fill-rule="evenodd" clip-rule="evenodd" d="M5.8188 19.152L0.612549 30.096C0.612549 30.096 0.612549 30.248 0.612549 30.4L14.7 43.776C14.8532 43.776 14.8532 43.776 15.0063 43.776L29.0938 30.4C29.0938 30.4 29.2469 30.248 29.0938 30.096L23.8875 19.152C23.8875 19 23.7344 19 23.7344 19H6.12505C5.97192 19 5.8188 19 5.8188 19.152Z" fill="#50AF95"/>
<path fill-rule="evenodd" clip-rule="evenodd" d="M16.6907 31.16C16.5375 31.16 16.0782 31.16 14.8532 31.16C13.9344 31.16 13.3219 31.16 13.0157 31.16C9.4938 31.008 6.73755 30.4 6.73755 29.64C6.73755 28.88 9.4938 28.272 13.0157 28.12V30.552C13.1688 30.552 13.9344 30.552 14.8532 30.552C15.925 30.552 16.5375 30.552 16.6907 30.552V28.12C20.2125 28.272 22.9688 28.88 22.9688 29.64C22.9688 30.4 20.3657 31.008 16.6907 31.16ZM16.6907 27.816V25.688H21.7438V22.344H8.11567V25.688H13.1688V27.816C9.03442 27.968 5.97192 28.728 5.97192 29.792C5.97192 30.856 9.03442 31.616 13.1688 31.768V38.76H16.8438V31.768C20.9782 31.616 23.8875 30.856 23.8875 29.792C23.8875 28.728 20.825 28.12 16.6907 27.816Z" fill="white"/>
<path d="M57.4219 52.44V44.384H62.7812V45.904H59.4125V47.576H62.6281V49.096H59.4125V50.92H62.7812V52.44H57.4219Z" fill="white"/>
<path d="M68.1406 52.44L66.4563 49.4H65.8438V52.44H63.8531V44.384H66.7625C68.2938 44.384 69.825 44.992 69.825 46.816C69.825 48.336 68.7531 48.944 68.2938 49.096L70.4375 52.44H68.1406ZM66.6094 45.904H65.8438V48.032H66.6094C67.375 48.032 67.9875 47.88 67.9875 46.968C67.9875 46.056 67.375 45.904 66.6094 45.904Z" fill="white"/>
<path d="M74.8781 52.592C72.4281 52.592 70.5906 51.072 70.5906 48.336C70.5906 45.752 72.4281 44.08 74.8781 44.08C76.5625 44.08 77.4812 44.84 77.6343 44.992L77.0218 46.512C76.8687 46.36 75.95 45.6 74.8781 45.6C73.5 45.6 72.4281 46.512 72.4281 48.032C72.4281 49.552 73.5 50.464 74.8781 50.464C75.95 50.464 76.5625 50.008 77.0218 49.552L77.6343 51.072C77.4812 51.984 76.5625 52.592 74.8781 52.592Z" fill="white"/>
<path d="M78.8594 52.44L78.7062 51.224L81.4625 48.792C82.2281 48.032 82.6875 47.576 82.6875 46.816C82.6875 46.056 82.2281 45.6 81.3093 45.6C80.5437 45.6 79.7781 46.056 79.3187 46.664L78.5531 45.6C78.7062 45.296 79.625 44.232 81.4625 44.232C83.3 44.232 84.3718 45.144 84.3718 46.664C84.3718 48.032 83.3 48.944 82.6875 49.552L81.0031 51.072H84.8312V52.592H78.8594V52.44Z" fill="white"/>
<path d="M89.1188 52.592C86.6688 52.592 85.75 50.616 85.75 48.336C85.75 46.056 86.8219 44.08 89.1188 44.08C91.5688 44.08 92.4875 46.056 92.4875 48.336C92.4875 50.616 91.5688 52.592 89.1188 52.592ZM89.1188 45.904C88.0469 45.904 87.5875 46.968 87.5875 48.488C87.5875 50.008 88.0469 51.072 89.1188 51.072C90.1906 51.072 90.65 50.008 90.65 48.488C90.65 46.968 90.1906 45.904 89.1188 45.904Z" fill="white"/>
</svg>
