<svg width="143" height="45" viewBox="0 0 143 45" fill="none" xmlns="http://www.w3.org/2000/svg">
<path d="M20.4134 41.706C30.9325 41.706 39.4597 33.2955 39.4597 22.9207C39.4597 12.5459 30.9325 4.13547 20.4134 4.13547C9.89449 4.13547 1.36719 12.5459 1.36719 22.9207C1.36719 33.2955 9.89449 41.706 20.4134 41.706Z" fill="#26A17B"/>
<path d="M22.4438 24.6543V24.6513C22.3121 24.6603 21.6323 24.6996 20.1197 24.6996C18.9101 24.6996 18.0619 24.6664 17.7618 24.6513V24.6543C13.1105 24.452 9.64115 23.6546 9.64115 22.6973C9.64115 21.7428 13.1136 20.9426 17.7618 20.7402V23.86C18.065 23.8811 18.9377 23.9324 20.1411 23.9324C21.5864 23.9324 22.309 23.8721 22.4438 23.86V20.7433C27.086 20.9485 30.5461 21.7459 30.5461 22.7003C30.5461 23.6546 27.0828 24.452 22.4438 24.6572V24.6543ZM22.4438 20.42V17.6294H28.9201V13.3741H11.2886V17.6294H17.765V20.42C12.5012 20.6586 8.54492 21.6855 8.54492 22.9178C8.54492 24.1499 12.5042 25.1768 17.765 25.4183V34.364H22.4468V25.4183C27.7014 25.1798 31.6516 24.1529 31.6516 22.9207C31.6516 21.6916 27.7014 20.6617 22.4468 20.423" fill="white"/>
<path d="M55.6381 14.5367V19.0489H60.0844V22.4344H55.6075V29.2992C55.6075 30.8153 56.4558 31.5553 57.6989 31.5553C58.3206 31.5553 59.0402 31.362 59.6281 31.0721L60.7396 34.4244C59.5975 34.8744 58.6482 35.0676 57.4388 35.1009C53.9418 35.2308 51.6544 33.2646 51.6544 29.2992V22.4344H48.6475V19.0489H51.6544V14.9566L55.6381 14.5367ZM132.292 18.8374L132.586 20.6737C133.829 18.7077 135.495 18.4176 137.13 18.4176C138.796 18.4176 140.397 19.061 141.279 19.9308L139.482 23.3466C138.664 22.67 137.914 22.3136 136.606 22.3136C134.515 22.3136 132.586 23.41 132.586 26.3426V34.7233H128.599V18.8315L132.292 18.8374ZM122.521 24.9291C122.26 22.8664 120.625 21.8334 118.338 21.8334C116.182 21.8334 114.415 22.8664 113.827 24.9291H122.521ZM113.763 28.1848C114.023 30.1509 115.756 31.5704 118.567 31.5704C120.037 31.5704 121.966 31.0207 122.882 30.0874L125.43 32.57C123.73 34.3096 120.953 35.1492 118.5 35.1492C112.945 35.1492 109.641 31.7636 109.641 26.6716C109.641 21.8365 112.976 18.3542 118.206 18.3542C123.598 18.3542 126.967 21.6431 126.345 28.1848H113.763ZM96.1804 12.163V20.9938C97.6196 19.1577 99.3833 18.6079 101.215 18.6079C105.789 18.6079 107.816 21.6704 107.816 26.3455V34.7264H103.83V26.3787C103.83 23.4764 102.292 22.2532 100.167 22.2532C97.8125 22.2532 96.1804 24.2193 96.1804 26.6053V34.7294H92.1936V12.166L96.1804 12.163ZM85.5916 14.3556V18.8676H90.0379V22.2532H85.561V29.1181C85.561 30.6341 86.4123 31.374 87.6524 31.374C88.2741 31.374 88.9937 31.1808 89.5816 30.8908L90.6931 34.2431C89.551 34.6931 88.6017 34.8865 87.3922 34.9197C83.8952 35.0495 81.6078 33.0804 81.6078 29.1181V22.2532H78.6009V18.8676H81.6078V14.7754L85.5916 14.3556ZM74.5773 24.9291C74.317 22.8664 72.6819 21.8334 70.3944 21.8334C68.2387 21.8334 66.4719 22.8664 65.884 24.9291H74.5773ZM65.8197 28.1848C66.08 30.1509 67.8131 31.5704 70.6241 31.5704C72.094 31.5704 74.023 31.0207 74.9387 30.0874L77.4862 32.57C75.7868 34.3096 73.0095 35.1492 70.5568 35.1492C64.999 35.1492 61.6982 31.7636 61.6982 26.6716C61.6982 21.8365 65.0327 18.3542 70.2597 18.3542C75.6521 18.3542 79.0173 21.6431 78.3988 28.1848H65.8197Z" fill="white"/>
</svg>
