<svg width="138" height="75" viewBox="0 0 138 75" fill="none" xmlns="http://www.w3.org/2000/svg">
<path d="M47.36 28.595H49.19L52.0475 39.525H52.1912L54.2888 28.595H56.6938L53.375 43.2288H51.155L48.36 32.9188H48.215L45.5 43.2288H43.2813L39.9375 28.5813H42.24L44.5425 39.5113H44.6863L47.36 28.595ZM59.615 37.0075H64.3213C64.2188 34.8388 63.1713 33.9725 62.0713 33.9725C60.8175 33.9725 59.85 34.9438 59.625 37.0075M65.975 40.8925V42.4625C65.05 43 63.8175 43.4125 62.35 43.4125C58.8975 43.4125 57.4788 41.2625 57.4788 38C57.4788 34.8588 59.0613 32.5875 62.145 32.5875C64.7138 32.5875 66.2975 34.2625 66.2975 37.6288V38.3938H59.5975C59.5975 40.8725 60.6038 41.9688 62.7225 41.9688C63.8325 41.9688 64.8475 41.575 65.99 40.8938M71.0813 41.7688C71.7388 42.0563 72.4588 42.1013 72.9738 42.1013C74.495 42.1013 75.645 41.1513 75.645 37.8038C75.645 35.1788 74.7 34.3325 73.3225 34.3325C72.5 34.3325 71.9038 34.56 71.0813 35.0138V41.7688ZM71.1025 33.485C71.7175 33.155 72.765 32.72 73.8775 32.72C76.4275 32.72 77.805 34.495 77.805 37.8025C77.805 41.6775 75.955 43.5463 72.975 43.5463C71.5801 43.5078 70.2109 43.162 68.965 42.5338V28.0888L71.09 27.5725V33.4475L71.1025 33.485ZM87.5075 43.235H86.1925L81.9975 32.8638H81.8138V43.235H79.9638V28.585H82.4638L87.0675 40.135H87.17L91.57 28.585H94.12V43.235H91.875V32.6038H91.69L87.5075 43.235ZM103.179 38C103.179 35.2125 102.049 34.0338 100.651 34.0338C99.295 34.0338 98.1225 35.2113 98.1225 38C98.1225 40.8313 99.1925 41.9663 100.651 41.9663C102.11 41.9663 103.179 40.8313 103.179 38ZM95.9638 38C95.9638 34.3838 97.9388 32.5875 100.651 32.5875C103.364 32.5875 105.339 34.3838 105.339 38C105.339 41.5325 103.469 43.4125 100.651 43.4125C97.8338 43.4125 95.9638 41.5313 95.9638 38ZM106.938 34.1038C107.863 33.545 109.816 32.5738 112.18 32.5738C114.646 32.5738 115.57 33.545 115.57 35.6738V43.1538H113.445V36.15C113.445 34.5188 112.645 34.2288 111.595 34.2288C110.774 34.2288 109.724 34.6013 109.088 34.9725V43.1538H106.963L106.938 34.1038ZM120.095 36.9938H124.803C124.703 34.825 123.653 33.9588 122.553 33.9588C121.299 33.9588 120.334 34.93 120.106 36.9938M126.456 40.8788V42.4488C125.531 42.9863 124.299 43.3988 122.831 43.3988C119.381 43.3988 117.96 41.2488 117.96 37.9863C117.96 34.845 119.543 32.5738 122.626 32.5738C125.196 32.5738 126.78 34.2488 126.78 37.615V38.38H120.077C120.077 40.8588 121.085 41.955 123.202 41.955C124.311 41.955 125.328 41.5613 126.47 40.88M135.32 32.5738H137.5L133.779 42.9025C132.75 45.7525 131.496 47.24 129.134 47.24V45.5475C130.534 45.5475 131.384 44.4313 131.889 42.9013L127.941 32.5725H130.191L132.823 40.175H132.948L135.32 32.5738Z" fill="white"/>
<path d="M27.4339 20.9088C24.8194 19.6511 21.9551 18.9987 19.0539 19C8.52512 19 -0.0373773 27.5 0.000122707 37.8375C0.000122707 48.245 8.56262 56.7075 19.1176 56.73C22.4089 56.7328 25.6456 55.89 28.5176 54.2825C29.4139 53.7788 30.2514 53.2 31.0176 52.625L27.1426 48.3L22.7001 52.3338L15.1939 44.0838L17.2689 42.2838L12.0214 36.4838L14.0964 34.6838L8.77762 28.8838L17.0851 21.5L19.7451 24.3463L24.2626 20.3838L26.8839 23.0838L28.6339 21.5338L27.4339 20.9088Z" fill="#106DB3"/>
<path d="M20.1089 32.6513L15.5539 36.685L19.6351 41.1875L24.1901 37.1538L20.1089 32.6513Z" fill="#106DB3"/>
<path d="M23.3151 40.395L18.7976 44.465L22.8776 48.9288L27.4326 44.895L23.3151 40.395Z" fill="#106DB3"/>
<path d="M16.8651 24.9825L12.3126 29.0163L16.3901 33.5188L20.9451 29.485L16.8651 24.9825Z" fill="#106DB3"/>
<path d="M24.0289 23.8288L20.6539 26.8538L23.7164 30.2413L27.0914 27.1788L24.0289 23.8288Z" fill="#106DB3"/>
<path d="M30.0789 37.695L26.7039 40.72L29.7651 44.1038L33.1414 41.08L30.0789 37.695Z" fill="#106DB3"/>
<path d="M33.0789 44.5025L29.7039 47.5275L32.7626 50.9125L36.1376 47.8525L33.0789 44.5025Z" fill="#106DB3"/>
<path d="M33.3489 29.9613L31.0901 31.9788L33.1301 34.2113L35.3889 32.195L33.3489 29.9613Z" fill="#106DB3"/>
<path d="M30.4339 23.2638L28.1751 25.3163L30.2151 27.55L32.4751 25.5325L30.4339 23.2638Z" fill="#106DB3"/>
<path d="M36.2264 36.6263L33.9676 38.6438L36.0064 40.8763L38.3014 38.86L36.2264 36.6263Z" fill="#106DB3"/>
<path d="M27.1776 30.6125L23.8026 33.6375L26.8626 36.9875L30.2376 33.9625L27.1776 30.6125Z" fill="#106DB3"/>
</svg>
