<svg width="131" height="29" viewBox="0 0 131 29" fill="none" xmlns="http://www.w3.org/2000/svg">
<path d="M115.091 14.5834C115.091 11.0263 112.389 8.14899 108.573 8.14899C104.832 8.14899 102.168 10.9158 102.168 14.7175C102.168 18.5382 104.907 21.3241 108.837 21.3241C111.331 21.3241 113.428 20.213 114.731 17.9546L112.087 16.7312C111.464 17.8604 110.103 18.5944 108.837 18.5944C107.232 18.5944 105.38 17.39 105.267 15.7153H114.996C115.058 15.3411 115.09 14.9626 115.091 14.5834ZM105.323 13.4959C105.551 11.8021 106.721 10.6919 108.592 10.6919C110.443 10.6919 111.577 11.7794 111.728 13.4959H105.323Z" fill="white"/>
<path d="M78.6719 8.14627C74.8365 8.14627 72.1165 10.8949 72.1165 14.7719C72.1165 18.6107 74.8365 21.3213 78.7101 21.3213C82.6019 21.3213 85.322 18.6107 85.322 14.8281C85.322 10.9321 82.5264 8.14627 78.6719 8.14627ZM78.7101 18.4413C76.7824 18.4413 75.5925 17.0112 75.5925 14.79C75.5925 12.5316 76.8015 10.9883 78.7101 10.9883C80.6369 10.9883 81.8459 12.5126 81.8459 14.79C81.8459 17.0302 80.656 18.4413 78.7101 18.4413V18.4413Z" fill="white"/>
<path d="M65.015 8.14991C63.4439 8.14991 62.2604 8.68459 61.0768 10.0104H60.6884C59.8933 8.81328 58.596 8.14991 57.1405 8.14991C56.4137 8.14283 55.6957 8.30781 55.0455 8.63128C54.3953 8.95475 53.8315 9.42744 53.4006 10.0104H53.0121L52.993 9.99231V8.40819H49.7417V21.0449H53.255V14.5417C53.255 12.4419 54.1429 11.2076 55.6776 11.2076C57.1014 11.2076 58.0256 12.2579 58.0256 13.8602V21.0449H61.5572V14.5417C61.5572 12.4573 62.4451 11.2076 63.9989 11.2076C65.4035 11.2076 66.3096 12.2579 66.3096 13.8792V21.0449H69.842V13.4551C69.842 10.1582 68.0662 8.14991 65.015 8.14991Z" fill="white"/>
<path d="M122.904 16.6623H122.652C122.652 16.4375 121.12 12.4356 120.116 9.95605L119.488 8.40546H115.949L120.97 21.0866L118.992 25.9187H122.507L129.738 8.40999H126.197L125.619 9.73583L123.66 14.5634C123.108 15.9119 122.882 16.5372 122.904 16.6623Z" fill="white"/>
<path d="M95.066 8.1499C93.494 8.1499 92.144 8.8314 91.2379 10.0476H90.8677L90.8313 10.0295V8.40818H87.5781V21.0449H91.0915V14.5788C91.0915 12.5162 92.0922 11.2257 93.736 11.2257C95.2707 11.2257 96.3988 12.3676 96.3988 14.1728V21.044H99.9121V13.4188C99.9121 10.324 97.878 8.1499 95.066 8.1499Z" fill="white"/>
<path d="M25.8806 0.90625C18.2899 0.90625 12.1902 7.02344 12.1902 14.5C12.1902 22.0382 18.3499 28.0938 25.8788 28.0938C33.4076 28.0938 39.5728 21.9766 39.5728 14.5C39.5728 7.02344 33.4095 0.90625 25.8806 0.90625ZM25.8806 19.5668C23.0805 19.5668 20.7789 17.2804 20.7789 14.5C20.7789 11.7196 23.0805 9.43316 25.8806 9.43316C28.6807 9.43316 30.9832 11.7196 30.9832 14.5C30.9205 17.2804 28.6807 19.5668 25.8806 19.5668Z" fill="#8B3FFD"/>
<path d="M12.1903 4.85568V24.6282H7.33969L1.11719 4.85568H12.1903Z" fill="#8B3FFD"/>
</svg>
